<svg version="1.1" id="Layer_1" xmlns="http://www.w3.org/2000/svg" xmlns:xlink="http://www.w3.org/1999/xlink" x="0px" y="0px"
	 width="100%" viewBox="0 0 1024 1024" enable-background="new 0 0 1024 1024" xml:space="preserve">
<path fill="#FEFFFF" opacity="1.000000" stroke="none" 
	d="
M651.000000,1025.000000 
	C434.000000,1025.000000 217.500000,1025.000000 1.000000,1025.000000 
	C1.000000,683.666687 1.000000,342.333344 1.000000,1.000000 
	C342.333344,1.000000 683.666687,1.000000 1025.000000,1.000000 
	C1025.000000,342.333344 1025.000000,683.666687 1025.000000,1025.000000 
	C900.500000,1025.000000 776.000000,1025.000000 651.000000,1025.000000 
M172.711441,516.500977 
	C172.852692,558.956116 180.838196,599.935059 196.569031,639.314209 
	C252.997818,780.573059 395.030396,866.862549 546.823425,851.727478 
	C624.206421,844.011719 692.357727,814.050232 747.700012,759.472656 
	C844.136292,664.369080 874.523865,549.178345 839.854187,419.095184 
	C804.645752,286.990875 688.401306,189.525482 551.588379,174.798782 
	C487.878357,167.940964 426.620697,177.116501 368.504669,204.311920 
	C250.235962,259.655792 170.751968,379.609009 172.711441,516.500977 
z"/>
<path fill="#1A5C93" opacity="1.000000" stroke="none" 
	d="
M172.707733,516.000854 
	C170.751968,379.609009 250.235962,259.655792 368.504669,204.311920 
	C426.620697,177.116501 487.878357,167.940964 551.588379,174.798782 
	C688.401306,189.525482 804.645752,286.990875 839.854187,419.095184 
	C874.523865,549.178345 844.136292,664.369080 747.700012,759.472656 
	C692.357727,814.050232 624.206421,844.011719 546.823425,851.727478 
	C395.030396,866.862549 252.997818,780.573059 196.569031,639.314209 
	C180.838196,599.935059 172.852692,558.956116 172.707733,516.000854 
M390.708252,635.358337 
	C392.245117,634.946228 393.781952,634.534180 395.283875,634.871643 
	C394.962280,638.190552 396.579834,640.668884 399.684174,640.728821 
	C401.397522,640.761963 404.414124,638.661499 404.585999,637.248291 
	C404.821014,635.315491 402.908173,633.121460 402.559204,630.749878 
	C405.996155,629.164795 409.433075,627.579651 413.060059,626.863831 
	C413.215271,639.742737 419.053467,644.170288 429.542511,639.052979 
	C429.027191,637.398132 428.499634,635.703918 427.989655,634.066284 
	C421.628021,634.895996 421.079224,634.412170 421.102081,628.382751 
	C421.112671,625.588501 421.103912,622.794128 421.103912,619.918335 
	C423.818848,619.643677 426.060791,619.416931 428.271729,619.193237 
	C428.271729,616.986389 428.271729,615.215698 428.271729,613.236755 
	C425.772339,613.065002 423.536011,612.911377 421.179443,612.749512 
	C421.008789,610.538757 420.860840,608.622498 420.643127,605.802673 
	C417.738190,607.579224 412.977631,603.496460 411.983307,610.012695 
	C409.291107,609.376404 406.526459,608.952454 403.920410,608.063538 
	C396.375275,605.490112 390.823547,609.994019 392.139893,617.786926 
	C392.549988,620.214783 393.212921,622.610535 393.456238,625.051270 
	C393.567932,626.171509 393.247467,627.641968 392.537170,628.415894 
	C392.143982,628.844360 390.525391,628.226807 389.487030,627.968750 
	C386.986603,627.347534 384.485229,626.718445 382.017792,625.980225 
	C380.202698,625.437134 378.440765,624.716309 376.264954,623.500854 
	C373.839935,614.595520 366.407990,610.187500 357.113129,612.141663 
	C349.074127,613.831787 344.673859,620.408081 345.911316,628.882996 
	C347.068176,636.806335 354.152130,641.785950 363.171051,641.085754 
	C369.278168,640.611572 373.095856,637.010620 376.655243,631.995728 
	C378.120972,632.713623 379.586670,633.431519 381.077972,634.915222 
	C380.793823,638.496948 382.566650,640.730713 386.007721,640.812012 
	C389.682312,640.898804 390.270508,637.973938 390.708252,635.358337 
M563.738159,630.912659 
	C564.846741,630.614807 565.940247,630.230103 567.066528,630.033630 
	C572.930786,629.010742 575.465698,624.969543 573.609558,619.368958 
	C571.956482,614.381104 568.416443,611.957703 562.970215,611.129028 
	C562.970215,608.858398 562.970215,606.587769 562.970215,604.275940 
	C565.643311,604.011108 567.710266,603.806335 569.713745,603.607849 
	C569.713745,601.539795 569.713745,599.933655 569.713745,598.173645 
	C564.768738,598.173645 560.069275,598.173645 555.026306,598.173645 
	C555.026306,603.664734 555.269897,608.815491 554.904297,613.922668 
	C554.761597,615.917114 552.950500,617.739746 552.447998,619.776062 
	C551.981934,621.664551 551.866577,623.819214 552.290222,625.700562 
	C552.784668,627.896362 554.685852,629.880371 554.825134,632.030823 
	C555.196838,637.771179 554.951599,643.551453 554.951599,649.485596 
	C560.194641,649.485596 564.778381,649.485596 569.527649,649.485596 
	C569.527649,647.324280 569.527649,645.451416 569.527649,643.455627 
	C567.153748,643.215149 565.095947,643.006714 562.957764,642.790100 
	C562.957764,638.609253 562.957764,634.806274 563.738159,630.912659 
M643.482971,371.562561 
	C642.301941,369.375183 641.382202,366.985748 639.881775,365.045380 
	C637.302734,361.710266 638.082031,359.396973 640.926270,356.606598 
	C645.723694,351.900238 650.093750,346.758270 654.615295,341.830292 
	C643.212524,336.836121 638.893860,346.686615 632.633911,352.221405 
	C626.402039,341.486755 626.402039,341.486755 616.997437,339.979004 
	C615.607300,336.531494 615.042786,332.370422 610.028198,331.091125 
	C609.289490,330.036346 608.565247,328.074402 607.809937,328.062378 
	C595.729797,327.870117 583.645630,327.926819 571.300598,327.926819 
	C568.151794,345.431946 565.065247,362.591278 561.950562,379.906738 
	C564.057861,380.104614 565.527283,380.242615 567.017822,381.061554 
	C568.059204,382.211731 569.246765,383.261871 570.114685,384.530731 
	C572.802002,388.459564 575.367737,392.471588 577.077209,396.694244 
	C568.395020,396.631287 559.712769,396.568329 551.018188,395.757050 
	C550.941101,391.698303 549.694824,388.359650 545.808716,386.140930 
	C549.475525,371.381409 553.142334,356.621857 556.819824,341.819092 
	C547.318726,339.975525 546.126038,340.374176 544.414917,345.611420 
	C543.841797,345.195343 543.319519,344.834686 542.816895,344.448395 
	C536.023071,339.226807 527.061951,338.804077 519.523804,343.353882 
	C511.884949,347.964447 507.734711,356.727600 509.270081,365.512268 
	C510.795593,374.240356 516.913696,377.834839 525.081299,379.756683 
	C527.048157,381.448120 529.015015,383.139557 530.229309,385.223969 
	C523.936462,387.982910 518.326355,385.355713 512.409790,382.788544 
	C510.878510,385.100555 509.362732,387.389130 507.880829,389.626587 
	C515.428162,396.107605 526.311096,397.112457 538.971375,393.683472 
	C538.978882,396.419098 538.986328,399.154755 538.338684,402.324799 
	C525.912292,406.068634 514.049622,405.075989 502.763855,398.337250 
	C501.154663,397.376373 499.086304,396.724976 497.226715,396.716125 
	C483.068085,396.648712 468.908508,396.768188 454.749390,396.857269 
	C453.361176,396.865997 451.974121,397.062256 450.093994,397.210266 
	C451.675446,400.237122 453.234650,402.622986 454.210327,405.227448 
	C455.726013,409.273468 458.294586,410.270172 462.569458,410.256836 
	C524.872498,410.062225 587.176208,410.083618 649.479797,410.067505 
	C650.929077,410.067139 652.378357,410.229706 654.372070,410.348816 
	C654.372070,467.373535 654.372070,524.091064 654.372070,580.706299 
	C659.188171,580.706299 663.429199,580.706299 667.636230,580.706299 
	C667.636230,521.284424 667.636230,462.219452 667.636230,402.518433 
	C661.822693,402.518433 656.363464,402.518433 650.959045,401.666138 
	C650.461670,400.346619 649.977783,399.021759 649.463928,397.708710 
	C648.534668,395.334381 649.050171,393.919739 652.526245,394.514008 
	C654.187683,394.545593 655.876892,394.395447 657.505249,394.643982 
	C661.831665,395.304321 663.776062,393.677246 664.150269,389.196747 
	C664.501465,384.992310 665.679016,380.856903 666.418701,377.071014 
	C670.361206,378.487335 673.793274,380.485870 677.401367,380.882446 
	C692.182434,382.507141 704.368774,367.085907 700.435669,352.168304 
	C698.782837,345.899475 694.808350,341.525665 688.451355,341.070343 
	C683.091919,340.686432 677.604553,342.089142 672.156921,342.702942 
	C669.921631,338.798584 665.528564,341.892731 661.852173,340.982788 
	C659.536499,352.903839 657.292786,364.454071 654.328613,375.932648 
	C650.890076,374.620667 647.451538,373.308685 643.482971,371.562561 
M335.310577,406.860687 
	C334.813660,410.112335 334.316772,413.364014 333.791473,416.801453 
	C344.845947,416.801453 355.573090,416.801453 366.486725,416.801453 
	C368.753754,403.445679 370.969391,390.392609 373.239441,377.019104 
	C378.730469,377.019104 383.885681,377.266235 389.003601,376.935516 
	C392.646942,376.700043 394.679626,377.756317 396.277435,381.206329 
	C401.379517,392.222717 406.801697,403.093475 412.278107,413.930603 
	C412.950592,415.261383 414.679718,416.918335 415.954468,416.948761 
	C426.227417,417.194397 436.508850,417.086365 447.957733,417.086365 
	C440.202362,402.019531 432.866821,387.768372 425.469177,373.396545 
	C426.292450,372.936096 426.826752,372.516266 427.433563,372.315369 
	C446.765259,365.914368 457.346680,352.359650 460.655823,332.474670 
	C464.043121,312.119781 456.833282,295.670258 439.082825,288.338684 
	C430.842163,284.934998 421.432129,283.480194 412.446960,282.959930 
	C397.506683,282.094818 382.481567,282.694183 367.492188,282.678467 
	C364.033508,282.674835 360.574829,282.677948 356.876892,282.677948 
	C349.717255,324.092041 342.634918,365.058990 335.310577,406.860687 
M381.947845,686.500610 
	C381.963623,702.825256 381.955475,719.150024 382.007050,735.474548 
	C382.027405,741.913208 384.240143,744.052429 390.749817,744.140930 
	C392.748322,744.168152 394.747589,744.137878 396.746490,744.137268 
	C482.200226,744.111206 567.653931,744.077393 653.107666,744.067749 
	C667.917480,744.066040 667.942810,744.113525 667.992432,729.220520 
	C668.032104,717.321411 668.000427,705.422119 668.000427,693.535706 
	C664.344299,696.889526 661.032715,700.089661 657.539856,703.077942 
	C654.910645,705.327515 654.038086,707.951172 654.176331,711.392517 
	C654.433716,717.799255 654.250244,724.223694 654.250244,730.692261 
	C567.739868,730.692261 481.858978,730.692261 395.247681,730.692261 
	C395.247681,709.732422 395.247681,689.033691 395.247681,668.282104 
	C390.447540,668.282104 386.382965,668.282104 381.947357,668.282104 
	C381.947357,674.226196 381.947357,679.863708 381.947845,686.500610 
M585.500000,462.981659 
	C532.426453,462.981659 479.352936,462.981659 426.262207,462.981659 
	C426.262207,467.762207 426.262207,471.971222 426.262207,476.177979 
	C492.421112,476.177979 558.179504,476.177979 624.301392,476.177979 
	C624.301392,471.663055 624.301392,467.455048 624.301392,462.980438 
	C611.456909,462.980438 598.978455,462.980438 585.500000,462.981659 
M486.500000,509.050995 
	C466.409576,509.050995 446.319153,509.050995 426.122040,509.050995 
	C426.122040,513.722046 426.122040,517.805603 426.122040,521.930176 
	C492.360992,521.930176 558.342102,521.930176 624.263428,521.930176 
	C624.263428,517.412598 624.263428,513.346313 624.263428,509.050903 
	C578.402771,509.050903 532.951355,509.050903 486.500000,509.050995 
M395.403473,464.500214 
	C395.407135,454.346436 395.417145,444.192627 395.412292,434.038849 
	C395.408936,427.047913 394.073761,419.720337 395.756592,413.165161 
	C397.293823,407.177032 394.419922,403.606079 392.327881,399.319885 
	C391.781158,398.199860 389.874573,397.196777 388.531219,397.112091 
	C384.014069,396.827454 381.956879,399.138550 381.955902,404.381134 
	C381.944916,462.639587 381.975006,520.898071 382.014923,579.156494 
	C382.015350,579.767639 382.295166,580.378662 382.392029,580.774780 
	C386.872406,580.774780 391.084930,580.774780 395.401642,580.774780 
	C395.401642,542.063416 395.401642,503.781830 395.403473,464.500214 
M425.830505,562.485840 
	C425.830505,564.428894 425.830505,566.372009 425.830505,568.493530 
	C471.080933,568.493530 515.766907,568.493530 560.514587,568.493530 
	C560.514587,564.014282 560.514587,559.821716 560.514587,555.661316 
	C515.433044,555.661316 470.766937,555.661316 425.829895,555.661316 
	C425.829895,557.892761 425.829895,559.712402 425.830505,562.485840 
M467.197388,349.811188 
	C460.979767,360.315216 461.814270,371.131561 469.295258,377.002594 
	C477.207703,383.212158 491.468018,382.107208 498.701630,374.578705 
	C498.009583,373.536774 497.340637,372.416718 496.557739,371.382874 
	C495.788879,370.367554 494.904327,369.439850 494.117493,368.528046 
	C483.284851,374.503815 475.470490,372.896088 474.636169,364.195923 
	C484.077850,364.195923 493.484650,364.195923 502.713776,364.195923 
	C506.776794,350.471832 500.405701,340.819733 487.319824,340.296387 
	C479.328186,339.976715 472.731384,343.019226 467.197388,349.811188 
M652.348816,693.851196 
	C657.504639,688.642273 662.729248,683.498962 667.790771,678.199951 
	C670.876709,674.969177 670.841187,671.079468 668.014832,668.502319 
	C664.976868,665.732178 660.847107,666.262024 657.512634,669.752380 
	C648.798218,678.874390 640.052246,687.966125 630.884827,697.522217 
	C627.811035,694.354797 624.882812,691.434143 622.067444,688.408508 
	C619.337036,685.474182 616.394897,684.883606 613.375671,687.701233 
	C610.303833,690.568054 610.160889,693.699402 613.193665,696.844604 
	C617.587036,701.400879 621.856262,706.078735 626.310303,710.574036 
	C629.856201,714.152771 632.544556,714.076111 636.144348,710.446045 
	C641.422241,705.123718 646.625671,699.727661 652.348816,693.851196 
M341.180817,531.752380 
	C348.544983,515.071167 355.909149,498.389954 363.644135,480.868774 
	C360.425903,480.868774 358.131195,481.109253 355.907074,480.815491 
	C352.053711,480.306610 350.005157,481.603455 348.475830,485.394775 
	C344.188843,496.022522 339.361420,506.431488 334.795349,516.947693 
	C331.197205,525.234558 327.670563,533.552490 324.036469,542.033325 
	C336.122070,543.259888 336.122070,543.259888 340.506104,533.373169 
	C340.640961,533.069092 340.778503,532.766174 341.180817,531.752380 
M701.220337,534.813538 
	C708.980225,517.080017 716.740173,499.346466 724.771606,480.992584 
	C721.928101,480.992584 720.075195,481.227112 718.303589,480.947144 
	C713.615417,480.206421 711.376282,482.266479 709.545837,486.564301 
	C703.038025,501.844574 696.044373,516.917358 689.299438,532.097595 
	C687.919434,535.203491 686.819885,538.433960 685.536560,541.747803 
	C697.707581,543.077576 697.707581,543.077576 701.220337,534.813538 
M464.817108,633.888672 
	C470.331604,633.596924 475.844666,633.236816 481.362915,633.117859 
	C481.922516,633.105774 482.846252,634.472412 483.036407,635.325134 
	C484.384888,641.372070 488.556732,641.323975 493.762604,640.223389 
	C488.811249,628.635742 484.016266,617.161560 478.975250,605.796509 
	C477.735352,603.001221 470.196564,603.299927 468.902130,606.136963 
	C463.814453,617.287598 458.883240,628.509583 453.856049,639.790161 
	C461.672180,641.336060 461.672180,641.336060 464.817108,633.888672 
M534.473267,603.996704 
	C528.216919,603.996704 521.960571,603.996704 515.677734,603.996704 
	C515.677734,606.619812 515.677734,608.538757 515.677734,611.106689 
	C521.775269,611.106689 527.593201,611.106689 534.349365,611.106689 
	C528.018127,618.757568 522.245117,625.425964 516.880127,632.407898 
	C515.304382,634.458557 514.886108,637.398499 513.842041,640.185242 
	C525.426575,640.185242 535.626038,640.185242 545.654236,640.185242 
	C545.654236,637.737915 545.654236,635.848267 545.654236,633.258789 
	C539.141357,633.258789 532.992004,633.258789 525.990356,633.258789 
	C532.057495,625.845642 537.588806,619.430664 542.671936,612.678284 
	C544.313171,610.497986 544.776672,607.431091 546.070679,603.995056 
	C541.416809,603.995056 538.438416,603.995056 534.473267,603.996704 
M586.515747,603.992126 
	C582.771912,603.992126 579.028076,603.992126 575.442505,603.992126 
	C575.442505,606.698792 575.442505,608.613159 575.442505,611.003967 
	C580.289978,611.003967 584.814941,611.003967 589.662109,611.003967 
	C582.704163,620.544556 582.704163,620.544556 583.411133,624.897156 
	C585.130005,624.897156 586.927002,624.857483 588.721497,624.905945 
	C591.843811,624.990234 594.332520,626.601624 593.677734,629.677979 
	C593.301025,631.448181 590.543457,633.960754 588.862183,633.957275 
	C584.727356,633.948486 580.595276,632.677368 576.025757,631.833435 
	C575.389160,633.259705 574.475708,635.306335 573.478088,637.541443 
	C580.574768,641.550537 587.537476,642.237915 594.635132,639.973328 
	C601.127014,637.901794 604.355896,631.479736 601.392517,625.690552 
	C599.812317,622.603516 596.361206,620.474121 593.529236,617.691101 
	C594.780945,613.350830 602.722351,611.512695 600.449951,603.994629 
	C596.096558,603.994629 591.800232,603.994629 586.515747,603.992126 
M631.473877,640.449341 
	C641.920532,642.362732 649.840637,637.967773 651.108215,629.554077 
	C652.353760,621.286438 648.017334,614.251404 640.407227,612.194092 
	C632.374451,610.022400 624.532043,613.648071 621.894226,620.752808 
	C618.807739,629.065979 621.981384,636.050598 631.473877,640.449341 
M436.668091,606.163391 
	C436.668091,620.603271 436.668091,635.043213 436.668091,649.471680 
	C441.747559,649.471680 446.298126,649.471680 450.754700,649.471680 
	C450.754700,647.205811 450.754700,645.300171 450.754700,643.358337 
	C448.505524,643.127930 446.598145,642.932495 444.969849,642.765686 
	C444.969849,629.619873 444.969849,616.914307 444.969849,604.245056 
	C447.238464,604.038269 449.007874,603.877014 451.111023,603.685303 
	C451.009125,601.675720 450.921539,599.948486 450.830170,598.146484 
	C445.967773,598.146484 441.543976,598.146484 436.655396,598.146484 
	C436.655396,600.663025 436.655396,602.963684 436.668091,606.163391 
M661.926208,643.565552 
	C668.395508,628.750977 674.864868,613.936401 681.413940,598.939270 
	C673.713867,597.776062 673.714478,597.776367 671.022339,603.751709 
	C669.795837,606.473877 668.533386,609.180298 667.343628,611.918457 
	C662.203552,623.748108 657.084412,635.586731 651.625793,648.188110 
	C655.815796,647.507080 660.149292,649.889343 661.926208,643.565552 
M690.429932,640.036926 
	C696.540161,626.304993 702.650391,612.573120 708.776794,598.804932 
	C703.107544,597.015991 700.071838,598.581116 698.142273,603.953003 
	C695.737122,610.648743 692.313904,616.974121 689.436646,623.506287 
	C685.924438,631.479797 682.522766,639.502014 679.135437,647.358948 
	C686.214539,650.077942 688.487854,645.889465 690.429932,640.036926 
M327.933350,644.636169 
	C334.648193,629.404358 341.363007,614.172546 348.064148,598.971741 
	C342.150757,597.196899 339.428192,599.361511 337.386566,604.371582 
	C332.879211,615.432312 327.716644,626.225586 322.851624,637.141418 
	C321.335999,640.541992 319.917480,643.985901 318.113373,648.208435 
	C322.072784,647.289551 325.892853,650.147278 327.933350,644.636169 
M480.802795,697.172668 
	C482.295135,695.091370 483.787506,693.010132 485.500183,690.621521 
	C487.440277,693.309692 488.956146,695.410095 490.596466,697.682922 
	C492.593292,696.154358 494.268707,694.871826 496.050873,693.507568 
	C494.306549,691.144226 492.774719,689.068726 491.006561,686.672974 
	C493.938507,685.606934 496.374237,684.721375 499.268158,683.669128 
	C498.150787,681.433533 497.175751,679.482727 496.184967,677.500366 
	C493.535522,678.598877 491.474060,679.453613 489.075256,680.448181 
	C488.883423,677.390320 488.732056,674.976868 488.562622,672.275757 
	C486.195099,672.384827 484.263977,672.473816 482.180634,672.569824 
	C482.023102,675.345947 481.888885,677.710938 481.730408,680.503357 
	C479.135132,679.450867 477.043854,678.602783 474.548767,677.590881 
	C473.773682,679.775330 473.095428,681.686829 472.414001,683.607300 
	C475.188873,684.788818 477.413757,685.736145 480.047424,686.857483 
	C478.115875,689.315063 476.504730,691.364990 474.561188,693.837830 
	C476.543762,695.148926 478.407410,696.381287 480.802795,697.172668 
M438.537048,682.633789 
	C440.718323,684.237671 442.899597,685.841553 445.205536,687.537170 
	C443.683472,689.492310 442.170898,691.435242 440.370514,693.747803 
	C442.284698,695.213257 444.026886,696.547058 445.776672,697.886719 
	C447.723358,695.423218 449.335663,693.382812 451.202698,691.020020 
	C453.031219,693.542358 454.548035,695.634766 456.231110,697.956421 
	C458.141785,696.262817 459.813416,694.781128 461.617859,693.181702 
	C459.721466,690.828979 458.099365,688.816589 456.289551,686.571289 
	C459.251953,685.404114 461.655060,684.457336 464.355164,683.393555 
	C463.396332,681.234070 462.617279,679.479370 461.824127,677.693054 
	C459.300568,678.691101 457.227509,679.511047 454.739563,680.495056 
	C454.484375,677.460144 454.282104,675.054932 454.090729,672.779114 
	C451.873627,672.779114 449.976776,672.779114 447.889038,672.779114 
	C447.889038,675.604370 447.889038,678.046936 447.889038,680.884094 
	C445.340454,679.809082 443.099548,678.863892 440.562927,677.793945 
	C439.934814,679.277832 439.367523,680.618103 438.537048,682.633789 
M515.107483,697.526001 
	C516.587952,695.451294 518.068359,693.376648 519.762451,691.002686 
	C521.721130,693.507935 523.302246,695.530212 525.032898,697.743835 
	C526.926758,696.161499 528.500366,694.846741 530.040283,693.560120 
	C528.246948,691.189209 526.775391,689.243774 525.025635,686.930542 
	C528.016418,685.707458 530.558228,684.668030 533.568237,683.437073 
	C532.322815,681.265625 531.236877,679.372253 530.179443,677.528625 
	C527.548828,678.593872 525.520935,679.415039 523.237183,680.339844 
	C523.073120,677.415710 522.946228,675.154724 522.814636,672.809387 
	C520.716919,672.809387 518.955078,672.809387 517.029114,672.809387 
	C516.854614,675.445068 516.696899,677.826904 516.508423,680.673340 
	C513.802124,679.634583 511.577026,678.780518 509.075714,677.820435 
	C508.245575,679.857300 507.523224,681.629700 506.697113,683.656738 
	C509.485931,684.761841 511.841217,685.695190 514.520691,686.757019 
	C512.515930,689.371765 510.940796,691.426147 509.126984,693.791809 
	C511.065765,695.261292 512.763184,696.547791 515.107483,697.526001 
M566.504639,681.996704 
	C565.881775,680.674622 565.258911,679.352539 564.598267,677.950256 
	C562.029419,678.934937 559.755676,679.806519 556.989624,680.866760 
	C556.989624,677.916626 556.989624,675.491455 556.989624,672.931641 
	C554.709778,672.931641 552.800110,672.931641 550.539429,672.931641 
	C550.539429,675.734314 550.539429,678.244263 550.539429,681.089172 
	C547.943970,679.808472 545.771423,678.736450 543.318237,677.526001 
	C542.378235,679.771118 541.587646,681.659302 540.731201,683.704834 
	C543.520386,684.845825 545.754517,685.759705 548.355042,686.823547 
	C546.536255,689.347900 544.957031,691.539795 543.250366,693.908508 
	C545.135742,695.272156 546.723938,696.420898 548.504578,697.708801 
	C550.261902,695.403625 551.890808,693.266968 553.691101,690.905518 
	C555.657043,693.516907 557.315308,695.719604 559.129272,698.129089 
	C561.093872,696.415222 562.760376,694.961426 564.368469,693.558594 
	C562.525879,690.976990 561.046265,688.903931 559.874512,687.262207 
	C562.483887,685.540955 564.642822,684.116882 566.504639,681.996704 
M609.572998,648.864868 
	C610.226685,648.798096 611.343201,648.925415 611.464722,648.635498 
	C613.326660,644.196472 615.326416,639.776611 616.597717,635.160522 
	C616.855103,634.226135 614.452332,631.828613 612.894043,631.350708 
	C611.597900,630.953125 608.370972,632.340027 608.349731,633.011047 
	C608.182617,638.280090 608.581665,643.567078 609.572998,648.864868 
M502.579315,628.501282 
	C505.181152,628.501282 507.782990,628.501282 510.421997,628.501282 
	C510.421997,626.088074 510.421997,624.202271 510.421997,622.271484 
	C505.507721,622.271484 500.948242,622.271484 496.198212,622.271484 
	C496.198212,624.336487 496.198212,626.106750 496.198212,628.491943 
	C498.108093,628.491943 499.883514,628.491943 502.579315,628.501282 
z"/>
<path fill="#FCFDFD" opacity="1.000000" stroke="none" 
	d="
M335.431580,406.443298 
	C342.634918,365.058990 349.717255,324.092041 356.876892,282.677948 
	C360.574829,282.677948 364.033508,282.674835 367.492188,282.678467 
	C382.481567,282.694183 397.506683,282.094818 412.446960,282.959930 
	C421.432129,283.480194 430.842163,284.934998 439.082825,288.338684 
	C456.833282,295.670258 464.043121,312.119781 460.655823,332.474670 
	C457.346680,352.359650 446.765259,365.914368 427.433563,372.315369 
	C426.826752,372.516266 426.292450,372.936096 425.469177,373.396545 
	C432.866821,387.768372 440.202362,402.019531 447.957733,417.086365 
	C436.508850,417.086365 426.227417,417.194397 415.954468,416.948761 
	C414.679718,416.918335 412.950592,415.261383 412.278107,413.930603 
	C406.801697,403.093475 401.379517,392.222717 396.277435,381.206329 
	C394.679626,377.756317 392.646942,376.700043 389.003601,376.935516 
	C383.885681,377.266235 378.730469,377.019104 373.239441,377.019104 
	C370.969391,390.392609 368.753754,403.445679 366.486725,416.801453 
	C355.573090,416.801453 344.845947,416.801453 333.791473,416.801453 
	C334.316772,413.364014 334.813660,410.112335 335.431580,406.443298 
M379.019409,342.441681 
	C378.646271,345.031403 378.273132,347.621155 377.753265,351.229156 
	C388.779602,350.736023 399.216827,350.346497 409.640961,349.733643 
	C411.573853,349.620026 413.505035,348.732880 415.349548,347.986572 
	C424.171417,344.417267 429.013000,335.344696 427.868378,324.685516 
	C426.946564,316.101074 422.126465,310.840759 411.862427,309.781708 
	C402.856384,308.852448 393.678589,309.587616 384.288452,309.587616 
	C382.560944,320.259247 380.835846,330.916077 379.019409,342.441681 
z"/>
<path fill="#FBFDFD" opacity="1.000000" stroke="none" 
	d="
M381.947601,686.000916 
	C381.947357,679.863708 381.947357,674.226196 381.947357,668.282104 
	C386.382965,668.282104 390.447540,668.282104 395.247681,668.282104 
	C395.247681,689.033691 395.247681,709.732422 395.247681,730.692261 
	C481.858978,730.692261 567.739868,730.692261 654.250244,730.692261 
	C654.250244,724.223694 654.433716,717.799255 654.176331,711.392517 
	C654.038086,707.951172 654.910645,705.327515 657.539856,703.077942 
	C661.032715,700.089661 664.344299,696.889526 668.000427,693.535706 
	C668.000427,705.422119 668.032104,717.321411 667.992432,729.220520 
	C667.942810,744.113525 667.917480,744.066040 653.107666,744.067749 
	C567.653931,744.077393 482.200226,744.111206 396.746490,744.137268 
	C394.747589,744.137878 392.748322,744.168152 390.749817,744.140930 
	C384.240143,744.052429 382.027405,741.913208 382.007050,735.474548 
	C381.955475,719.150024 381.963623,702.825256 381.947601,686.000916 
z"/>
<path fill="#F7F9FA" opacity="1.000000" stroke="none" 
	d="
M650.904297,402.518433 
	C656.363464,402.518433 661.822693,402.518433 667.636230,402.518433 
	C667.636230,462.219452 667.636230,521.284424 667.636230,580.706299 
	C663.429199,580.706299 659.188171,580.706299 654.372070,580.706299 
	C654.372070,524.091064 654.372070,467.373535 654.372070,410.348816 
	C652.378357,410.229706 650.929077,410.067139 649.479797,410.067505 
	C587.176208,410.083618 524.872498,410.062225 462.569458,410.256836 
	C458.294586,410.270172 455.726013,409.273468 454.210327,405.227448 
	C453.234650,402.622986 451.675446,400.237122 450.093994,397.210266 
	C451.974121,397.062256 453.361176,396.865997 454.749390,396.857269 
	C468.908508,396.768188 483.068085,396.648712 497.226715,396.716125 
	C499.086304,396.724976 501.154663,397.376373 502.763855,398.337250 
	C514.049622,405.075989 525.912292,406.068634 539.020752,402.096100 
	C543.478821,400.080078 547.254700,398.292725 551.030579,396.505371 
	C559.712769,396.568329 568.395020,396.631287 577.984619,396.694733 
	C598.585388,396.627533 618.278809,396.559845 638.376709,396.605103 
	C640.376160,396.808990 641.971130,396.899933 643.538574,396.989319 
	C643.562378,403.044525 643.594604,403.066864 650.904297,402.518433 
z"/>
<path fill="#FAFBFC" opacity="1.000000" stroke="none" 
	d="
M586.000000,462.981049 
	C598.978455,462.980438 611.456909,462.980438 624.301392,462.980438 
	C624.301392,467.455048 624.301392,471.663055 624.301392,476.177979 
	C558.179504,476.177979 492.421112,476.177979 426.262207,476.177979 
	C426.262207,471.971222 426.262207,467.762207 426.262207,462.981659 
	C479.352936,462.981659 532.426453,462.981659 586.000000,462.981049 
z"/>
<path fill="#FAFCFC" opacity="1.000000" stroke="none" 
	d="
M487.000000,509.050964 
	C532.951355,509.050903 578.402771,509.050903 624.263428,509.050903 
	C624.263428,513.346313 624.263428,517.412598 624.263428,521.930176 
	C558.342102,521.930176 492.360992,521.930176 426.122040,521.930176 
	C426.122040,517.805603 426.122040,513.722046 426.122040,509.050995 
	C446.319153,509.050995 466.409576,509.050995 487.000000,509.050964 
z"/>
<path fill="#FBFCFC" opacity="1.000000" stroke="none" 
	d="
M395.402557,465.000244 
	C395.401642,503.781830 395.401642,542.063416 395.401642,580.774780 
	C391.084930,580.774780 386.872406,580.774780 382.392029,580.774780 
	C382.295166,580.378662 382.015350,579.767639 382.014923,579.156494 
	C381.975006,520.898071 381.944916,462.639587 381.955902,404.381134 
	C381.956879,399.138550 384.014069,396.827454 388.531219,397.112091 
	C389.874573,397.196777 391.781158,398.199860 392.327881,399.319885 
	C394.419922,403.606079 397.293823,407.177032 395.756592,413.165161 
	C394.073761,419.720337 395.408936,427.047913 395.412292,434.038849 
	C395.417145,444.192627 395.407135,454.346436 395.402557,465.000244 
z"/>
<path fill="#1D5D94" opacity="1.000000" stroke="none" 
	d="
M637.972168,396.492188 
	C618.278809,396.559845 598.585388,396.627533 578.436340,396.573273 
	C575.367737,392.471588 572.802002,388.459564 570.114685,384.530731 
	C569.246765,383.261871 568.059204,382.211731 567.444580,380.633331 
	C570.242310,380.261932 572.613342,380.318726 574.987549,380.713531 
	C575.259888,381.914764 575.529114,382.777985 575.798279,383.641205 
	C576.069397,383.596649 576.340576,383.552124 576.611694,383.507568 
	C576.746460,382.464417 576.881226,381.421234 577.475647,380.294250 
	C583.618103,380.261505 589.300903,380.312653 594.986145,380.742371 
	C594.494629,385.124390 597.308533,386.620148 600.275452,386.512360 
	C603.761047,386.385742 602.957458,383.133240 602.919128,380.757538 
	C602.911255,380.271027 602.800537,379.786194 602.669800,378.920349 
	C602.856140,376.143677 603.109924,373.747253 603.403625,370.974060 
	C593.802551,370.974060 584.716187,370.974060 575.120483,370.974060 
	C575.927124,366.703979 576.651550,362.869202 577.455139,358.615356 
	C585.685120,358.615356 593.580566,358.615356 601.369080,358.615356 
	C601.911987,356.721222 602.315918,355.312103 603.153809,353.930603 
	C607.460266,354.507324 611.128174,353.571991 611.467896,349.376404 
	C611.657898,347.029999 609.866516,343.571075 607.874451,342.185242 
	C602.664307,338.560669 598.129517,341.944061 597.590088,349.186340 
	C595.787842,349.213196 594.393738,349.137390 592.957825,348.690430 
	C591.839355,347.574554 590.762817,346.829742 589.686279,346.084961 
	C589.124817,347.075836 588.563354,348.066711 587.562622,349.158997 
	C584.549866,349.260406 581.976318,349.260406 579.103943,349.260406 
	C579.962036,344.829529 580.677795,341.133514 581.475891,337.012512 
	C590.822815,337.012512 599.913635,337.012512 609.151733,337.318420 
	C611.188293,338.746277 613.077698,339.868195 614.977722,341.338135 
	C615.701416,343.373413 616.414429,345.060669 616.960938,347.124817 
	C615.046204,354.028442 617.263794,359.563385 622.564819,362.642273 
	C617.257629,368.432861 612.124817,373.920563 606.935059,379.469208 
	C615.135132,381.554840 621.450745,379.920776 625.764954,372.858673 
	C626.428772,371.772095 627.669250,371.037842 628.783813,370.526764 
	C630.011780,371.918243 631.098999,372.923553 632.451904,374.151672 
	C634.466248,376.479767 636.214905,378.585052 637.974609,381.046021 
	C640.046936,386.433685 641.037170,391.464752 637.972168,396.492188 
z"/>
<path fill="#F1F4F8" opacity="1.000000" stroke="none" 
	d="
M425.830200,562.008972 
	C425.829895,559.712402 425.829895,557.892761 425.829895,555.661316 
	C470.766937,555.661316 515.433044,555.661316 560.514587,555.661316 
	C560.514587,559.821716 560.514587,564.014282 560.514587,568.493530 
	C515.766907,568.493530 471.080933,568.493530 425.830505,568.493530 
	C425.830505,566.372009 425.830505,564.428894 425.830200,562.008972 
z"/>
<path fill="#F5F8F9" opacity="1.000000" stroke="none" 
	d="
M538.931335,392.757904 
	C526.311096,397.112457 515.428162,396.107605 507.880829,389.626587 
	C509.362732,387.389130 510.878510,385.100555 512.409790,382.788544 
	C518.326355,385.355713 523.936462,387.982910 530.966614,385.104614 
	C536.979126,383.611694 537.837585,379.309021 538.618530,375.665619 
	C534.083496,376.792755 529.539429,377.922119 524.995422,379.051483 
	C516.913696,377.834839 510.795593,374.240356 509.270081,365.512268 
	C507.734711,356.727600 511.884949,347.964447 519.523804,343.353882 
	C527.061951,338.804077 536.023071,339.226807 542.816895,344.448395 
	C543.319519,344.834686 543.841797,345.195343 544.414917,345.611420 
	C546.126038,340.374176 547.318726,339.975525 556.819824,341.819092 
	C553.142334,356.621857 549.475525,371.381409 545.415283,386.673035 
	C542.991699,389.056091 540.961487,390.906982 538.931335,392.757904 
M531.637207,349.640747 
	C529.744629,350.208374 527.663757,350.446991 525.993225,351.402740 
	C519.993713,354.835236 518.708069,364.103607 523.521912,368.060242 
	C526.700012,370.672394 532.167480,370.784119 536.162842,368.118591 
	C540.244446,365.395477 542.255066,361.527466 541.401123,356.593445 
	C540.555847,351.709167 537.218933,349.700073 531.637207,349.640747 
z"/>
<path fill="#F5F8FA" opacity="1.000000" stroke="none" 
	d="
M609.004456,337.012512 
	C599.913635,337.012512 590.822815,337.012512 581.475891,337.012512 
	C580.677795,341.133514 579.962036,344.829529 579.103943,349.260406 
	C581.976318,349.260406 584.549866,349.260406 587.970398,349.263702 
	C590.211487,349.198517 591.605591,349.130035 592.999695,349.061554 
	C594.393738,349.137390 595.787842,349.213196 597.983643,349.292908 
	C600.115051,349.429871 601.444641,349.563019 602.719788,349.690704 
	C602.719788,351.402008 602.719788,352.652496 602.719849,353.902985 
	C602.315918,355.312103 601.911987,356.721222 601.369080,358.615356 
	C593.580566,358.615356 585.685120,358.615356 577.455139,358.615356 
	C576.651550,362.869202 575.927124,366.703979 575.120483,370.974060 
	C584.716187,370.974060 593.802551,370.974060 603.403625,370.974060 
	C603.109924,373.747253 602.856140,376.143677 602.296936,379.155609 
	C599.655579,379.968689 597.319641,380.166229 594.983704,380.363770 
	C589.300903,380.312653 583.618103,380.261505 577.140808,380.207275 
	C575.892334,380.261261 575.438293,380.318390 574.984314,380.375549 
	C572.613342,380.318726 570.242310,380.261932 567.434082,380.292847 
	C565.527283,380.242615 564.057861,380.104614 561.950562,379.906738 
	C565.065247,362.591278 568.151794,345.431946 571.300598,327.926819 
	C583.645630,327.926819 595.729797,327.870117 607.809937,328.062378 
	C608.565247,328.074402 609.289490,330.036346 609.925049,331.884583 
	C609.549438,334.122864 609.276917,335.567688 609.004456,337.012512 
z"/>
<path fill="#F5F8F9" opacity="1.000000" stroke="none" 
	d="
M655.049133,376.004333 
	C657.292786,364.454071 659.536499,352.903839 661.852173,340.982788 
	C665.528564,341.892731 669.921631,338.798584 672.156921,342.702942 
	C677.604553,342.089142 683.091919,340.686432 688.451355,341.070343 
	C694.808350,341.525665 698.782837,345.899475 700.435669,352.168304 
	C704.368774,367.085907 692.182434,382.507141 677.401367,380.882446 
	C673.793274,380.485870 670.361206,378.487335 666.418701,377.071014 
	C665.679016,380.856903 664.501465,384.992310 664.150269,389.196747 
	C663.776062,393.677246 661.831665,395.304321 657.505249,394.643982 
	C655.876892,394.395447 654.187683,394.545593 652.297729,393.861206 
	C653.062500,387.473694 654.055786,381.739014 655.049133,376.004333 
M685.182617,350.944946 
	C683.096741,350.607025 680.976990,349.850250 678.931885,350.015869 
	C674.250427,350.394989 670.700806,354.157745 669.470154,359.546783 
	C668.533386,363.649200 668.731812,367.654907 672.403625,370.347504 
	C676.170044,373.109497 680.287781,372.547791 684.048950,370.159698 
	C690.312988,366.182434 691.171082,356.713409 685.182617,350.944946 
z"/>
<path fill="#F5F8F9" opacity="1.000000" stroke="none" 
	d="
M467.420288,349.523804 
	C472.731384,343.019226 479.328186,339.976715 487.319824,340.296387 
	C500.405701,340.819733 506.776794,350.471832 502.713776,364.195923 
	C493.484650,364.195923 484.077850,364.195923 474.636169,364.195923 
	C475.470490,372.896088 483.284851,374.503815 494.117493,368.528046 
	C494.904327,369.439850 495.788879,370.367554 496.557739,371.382874 
	C497.340637,372.416718 498.009583,373.536774 498.701630,374.578705 
	C491.468018,382.107208 477.207703,383.212158 469.295258,377.002594 
	C461.814270,371.131561 460.979767,360.315216 467.420288,349.523804 
M480.596741,357.563263 
	C485.000916,357.563263 489.405121,357.563263 493.859222,357.563263 
	C493.348389,351.423279 491.283356,349.164459 486.737091,348.906647 
	C480.609222,348.559174 476.619995,351.455200 475.303467,357.589874 
	C476.837189,357.589874 478.278168,357.589874 480.596741,357.563263 
z"/>
<path fill="#F7FAFA" opacity="1.000000" stroke="none" 
	d="
M652.104858,694.107117 
	C646.625671,699.727661 641.422241,705.123718 636.144348,710.446045 
	C632.544556,714.076111 629.856201,714.152771 626.310303,710.574036 
	C621.856262,706.078735 617.587036,701.400879 613.193665,696.844604 
	C610.160889,693.699402 610.303833,690.568054 613.375671,687.701233 
	C616.394897,684.883606 619.337036,685.474182 622.067444,688.408508 
	C624.882812,691.434143 627.811035,694.354797 630.884827,697.522217 
	C640.052246,687.966125 648.798218,678.874390 657.512634,669.752380 
	C660.847107,666.262024 664.976868,665.732178 668.014832,668.502319 
	C670.841187,671.079468 670.876709,674.969177 667.790771,678.199951 
	C662.729248,683.498962 657.504639,688.642273 652.104858,694.107117 
z"/>
<path fill="#F5F8FA" opacity="1.000000" stroke="none" 
	d="
M617.127441,346.747986 
	C616.414429,345.060669 615.701416,343.373413 615.324097,341.315918 
	C616.111877,340.859680 616.564026,340.773651 617.016174,340.687622 
	C626.402039,341.486755 626.402039,341.486755 632.633911,352.221405 
	C638.893860,346.686615 643.212524,336.836121 654.615295,341.830292 
	C650.093750,346.758270 645.723694,351.900238 640.926270,356.606598 
	C638.082031,359.396973 637.302734,361.710266 639.881775,365.045380 
	C641.382202,366.985748 642.301941,369.375183 643.788696,372.129211 
	C645.342346,375.014587 646.590210,377.333313 648.074890,380.092194 
	C646.107788,380.221527 644.494385,380.336304 642.879883,380.431335 
	C641.241699,380.527802 639.602356,380.604797 637.963562,380.690338 
	C636.214905,378.585052 634.466248,376.479767 632.403076,373.825012 
	C630.940002,372.230591 629.791565,371.185608 628.643066,370.140625 
	C627.669250,371.037842 626.428772,371.772095 625.764954,372.858673 
	C621.450745,379.920776 615.135132,381.554840 606.935059,379.469208 
	C612.124817,373.920563 617.257629,368.432861 622.823608,362.512634 
	C623.458313,360.958496 624.182373,359.574402 623.773071,358.759552 
	C621.720886,354.673798 619.372009,350.737091 617.127441,346.747986 
z"/>
<path fill="#F7F9FA" opacity="1.000000" stroke="none" 
	d="
M341.047791,532.107544 
	C340.778503,532.766174 340.640961,533.069092 340.506104,533.373169 
	C336.122070,543.259888 336.122070,543.259888 324.036469,542.033325 
	C327.670563,533.552490 331.197205,525.234558 334.795349,516.947693 
	C339.361420,506.431488 344.188843,496.022522 348.475830,485.394775 
	C350.005157,481.603455 352.053711,480.306610 355.907074,480.815491 
	C358.131195,481.109253 360.425903,480.868774 363.644135,480.868774 
	C355.909149,498.389954 348.544983,515.071167 341.047791,532.107544 
z"/>
<path fill="#F7F9FA" opacity="1.000000" stroke="none" 
	d="
M701.093506,535.179810 
	C697.707581,543.077576 697.707581,543.077576 685.536560,541.747803 
	C686.819885,538.433960 687.919434,535.203491 689.299438,532.097595 
	C696.044373,516.917358 703.038025,501.844574 709.545837,486.564301 
	C711.376282,482.266479 713.615417,480.206421 718.303589,480.947144 
	C720.075195,481.227112 721.928101,480.992584 724.771606,480.992584 
	C716.740173,499.346466 708.980225,517.080017 701.093506,535.179810 
z"/>
<path fill="#F3F6F7" opacity="1.000000" stroke="none" 
	d="
M464.616608,634.259521 
	C461.672180,641.336060 461.672180,641.336060 453.856049,639.790161 
	C458.883240,628.509583 463.814453,617.287598 468.902130,606.136963 
	C470.196564,603.299927 477.735352,603.001221 478.975250,605.796509 
	C484.016266,617.161560 488.811249,628.635742 493.762604,640.223389 
	C488.556732,641.323975 484.384888,641.372070 483.036407,635.325134 
	C482.846252,634.472412 481.922516,633.105774 481.362915,633.117859 
	C475.844666,633.236816 470.331604,633.596924 464.616608,634.259521 
M477.897217,622.703247 
	C476.582886,619.534790 475.268555,616.366394 473.631897,612.420898 
	C471.739349,617.378418 470.180969,621.460632 468.408539,626.103516 
	C471.787811,626.103516 474.432953,626.225830 477.044556,625.984558 
	C477.485809,625.943787 477.782318,624.336426 477.897217,622.703247 
z"/>
<path fill="#F3F6F7" opacity="1.000000" stroke="none" 
	d="
M534.966614,603.995850 
	C538.438416,603.995056 541.416809,603.995056 546.070679,603.995056 
	C544.776672,607.431091 544.313171,610.497986 542.671936,612.678284 
	C537.588806,619.430664 532.057495,625.845642 525.990356,633.258789 
	C532.992004,633.258789 539.141357,633.258789 545.654236,633.258789 
	C545.654236,635.848267 545.654236,637.737915 545.654236,640.185242 
	C535.626038,640.185242 525.426575,640.185242 513.842041,640.185242 
	C514.886108,637.398499 515.304382,634.458557 516.880127,632.407898 
	C522.245117,625.425964 528.018127,618.757568 534.349365,611.106689 
	C527.593201,611.106689 521.775269,611.106689 515.677734,611.106689 
	C515.677734,608.538757 515.677734,606.619812 515.677734,603.996704 
	C521.960571,603.996704 528.216919,603.996704 534.966614,603.995850 
z"/>
<path fill="#F0F4F6" opacity="1.000000" stroke="none" 
	d="
M587.009827,603.993408 
	C591.800232,603.994629 596.096558,603.994629 600.449951,603.994629 
	C602.722351,611.512695 594.780945,613.350830 593.529236,617.691101 
	C596.361206,620.474121 599.812317,622.603516 601.392517,625.690552 
	C604.355896,631.479736 601.127014,637.901794 594.635132,639.973328 
	C587.537476,642.237915 580.574768,641.550537 573.478088,637.541443 
	C574.475708,635.306335 575.389160,633.259705 576.025757,631.833435 
	C580.595276,632.677368 584.727356,633.948486 588.862183,633.957275 
	C590.543457,633.960754 593.301025,631.448181 593.677734,629.677979 
	C594.332520,626.601624 591.843811,624.990234 588.721497,624.905945 
	C586.927002,624.857483 585.130005,624.897156 583.411133,624.897156 
	C582.704163,620.544556 582.704163,620.544556 589.662109,611.003967 
	C584.814941,611.003967 580.289978,611.003967 575.442505,611.003967 
	C575.442505,608.613159 575.442505,606.698792 575.442505,603.992126 
	C579.028076,603.992126 582.771912,603.992126 587.009827,603.993408 
z"/>
<path fill="#F3F6F7" opacity="1.000000" stroke="none" 
	d="
M375.912689,631.973755 
	C373.095856,637.010620 369.278168,640.611572 363.171051,641.085754 
	C354.152130,641.785950 347.068176,636.806335 345.911316,628.882996 
	C344.673859,620.408081 349.074127,613.831787 357.113129,612.141663 
	C366.407990,610.187500 373.839935,614.595520 376.422180,624.190979 
	C376.357178,627.245300 376.134918,629.609558 375.912689,631.973755 
M364.349884,634.015015 
	C367.724884,631.855774 369.007568,628.456604 367.825256,624.994751 
	C366.971588,622.495239 364.826447,619.900146 362.543823,618.627686 
	C361.186401,617.871094 357.903351,618.995667 356.441040,620.325012 
	C353.304840,623.176025 353.193756,627.121643 354.967285,630.850220 
	C356.708282,634.510437 359.729340,635.706970 364.349884,634.015015 
z"/>
<path fill="#F3F6F7" opacity="1.000000" stroke="none" 
	d="
M631.094482,640.307495 
	C621.981384,636.050598 618.807739,629.065979 621.894226,620.752808 
	C624.532043,613.648071 632.374451,610.022400 640.407227,612.194092 
	C648.017334,614.251404 652.353760,621.286438 651.108215,629.554077 
	C649.840637,637.967773 641.920532,642.362732 631.094482,640.307495 
M631.548157,632.925049 
	C634.154663,633.253296 637.067871,634.473633 639.297974,633.707031 
	C642.915710,632.463379 643.980164,627.021118 642.136353,622.795166 
	C640.617432,619.313721 637.978333,617.574829 634.175293,618.552002 
	C630.531738,619.488220 628.284668,624.000671 629.239197,628.301392 
	C629.553650,629.718689 630.409729,631.015747 631.548157,632.925049 
z"/>
<path fill="#F0F4F6" opacity="1.000000" stroke="none" 
	d="
M562.957764,631.003296 
	C562.957764,634.806274 562.957764,638.609253 562.957764,642.790100 
	C565.095947,643.006714 567.153748,643.215149 569.527649,643.455627 
	C569.527649,645.451416 569.527649,647.324280 569.527649,649.485596 
	C564.778381,649.485596 560.194641,649.485596 554.951599,649.485596 
	C554.951599,643.551453 555.196838,637.771179 554.825134,632.030823 
	C554.685852,629.880371 552.784668,627.896362 552.290222,625.700562 
	C551.866577,623.819214 551.981934,621.664551 552.447998,619.776062 
	C552.950500,617.739746 554.761597,615.917114 554.904297,613.922668 
	C555.269897,608.815491 555.026306,603.664734 555.026306,598.173645 
	C560.069275,598.173645 564.768738,598.173645 569.713745,598.173645 
	C569.713745,599.933655 569.713745,601.539795 569.713745,603.607849 
	C567.710266,603.806335 565.643311,604.011108 562.970215,604.275940 
	C562.970215,606.587769 562.970215,608.858398 562.977966,611.987000 
	C562.239136,616.221313 561.492554,619.597656 560.566711,623.784546 
	C561.122559,625.462769 562.040161,628.233032 562.957764,631.003296 
z"/>
<path fill="#F5F8FA" opacity="1.000000" stroke="none" 
	d="
M436.661743,605.713867 
	C436.655396,602.963684 436.655396,600.663025 436.655396,598.146484 
	C441.543976,598.146484 445.967773,598.146484 450.830170,598.146484 
	C450.921539,599.948486 451.009125,601.675720 451.111023,603.685303 
	C449.007874,603.877014 447.238464,604.038269 444.969849,604.245056 
	C444.969849,616.914307 444.969849,629.619873 444.969849,642.765686 
	C446.598145,642.932495 448.505524,643.127930 450.754700,643.358337 
	C450.754700,645.300171 450.754700,647.205811 450.754700,649.471680 
	C446.298126,649.471680 441.747559,649.471680 436.668091,649.471680 
	C436.668091,635.043213 436.668091,620.603271 436.661743,605.713867 
z"/>
<path fill="#114F85" opacity="1.000000" stroke="none" 
	d="
M376.283966,631.984741 
	C376.134918,629.609558 376.357178,627.245300 376.617249,624.477905 
	C378.440765,624.716309 380.202698,625.437134 382.017792,625.980225 
	C384.485229,626.718445 386.986603,627.347534 389.487030,627.968750 
	C390.525391,628.226807 392.143982,628.844360 392.537170,628.415894 
	C393.247467,627.641968 393.567932,626.171509 393.456238,625.051270 
	C393.212921,622.610535 392.549988,620.214783 392.139893,617.786926 
	C390.823547,609.994019 396.375275,605.490112 403.920410,608.063538 
	C406.526459,608.952454 409.291107,609.376404 412.468384,610.343323 
	C412.899689,611.116760 412.845947,611.559570 412.609070,612.113403 
	C412.203339,612.420349 412.060547,612.663208 411.622253,613.055359 
	C410.529144,613.695007 409.485443,614.078796 409.147797,614.795227 
	C407.331573,618.649170 411.156525,619.233521 412.765015,621.098328 
	C412.547852,621.285583 412.414093,621.439453 412.443604,621.483154 
	C412.569183,621.669250 412.743134,621.822815 412.979340,622.384277 
	C412.996155,623.851746 412.933075,624.923096 412.869995,625.994507 
	C409.433075,627.579651 405.996155,629.164795 401.849426,630.887573 
	C398.488342,630.721191 396.274139,631.238586 395.318817,634.122131 
	C393.781952,634.534180 392.245117,634.946228 390.329651,634.836914 
	C387.050781,630.724548 384.084595,630.665710 381.052368,634.149475 
	C379.586670,633.431519 378.120972,632.713623 376.283966,631.984741 
z"/>
<path fill="#F0F4F6" opacity="1.000000" stroke="none" 
	d="
M661.759766,643.917236 
	C660.149292,649.889343 655.815796,647.507080 651.625793,648.188110 
	C657.084412,635.586731 662.203552,623.748108 667.343628,611.918457 
	C668.533386,609.180298 669.795837,606.473877 671.022339,603.751709 
	C673.714478,597.776367 673.713867,597.776062 681.413940,598.939270 
	C674.864868,613.936401 668.395508,628.750977 661.759766,643.917236 
z"/>
<path fill="#F0F4F6" opacity="1.000000" stroke="none" 
	d="
M690.275696,640.386841 
	C688.487854,645.889465 686.214539,650.077942 679.135437,647.358948 
	C682.522766,639.502014 685.924438,631.479797 689.436646,623.506287 
	C692.313904,616.974121 695.737122,610.648743 698.142273,603.953003 
	C700.071838,598.581116 703.107544,597.015991 708.776794,598.804932 
	C702.650391,612.573120 696.540161,626.304993 690.275696,640.386841 
z"/>
<path fill="#F3F6F7" opacity="1.000000" stroke="none" 
	d="
M327.760620,644.993103 
	C325.892853,650.147278 322.072784,647.289551 318.113373,648.208435 
	C319.917480,643.985901 321.335999,640.541992 322.851624,637.141418 
	C327.716644,626.225586 332.879211,615.432312 337.386566,604.371582 
	C339.428192,599.361511 342.150757,597.196899 348.064148,598.971741 
	C341.363007,614.172546 334.648193,629.404358 327.760620,644.993103 
z"/>
<path fill="#F0F4F6" opacity="1.000000" stroke="none" 
	d="
M412.792236,612.002380 
	C412.845947,611.559570 412.899689,611.116760 412.879028,610.345703 
	C412.977631,603.496460 417.738190,607.579224 420.643127,605.802673 
	C420.860840,608.622498 421.008789,610.538757 421.179443,612.749512 
	C423.536011,612.911377 425.772339,613.065002 428.271729,613.236755 
	C428.271729,615.215698 428.271729,616.986389 428.271729,619.193237 
	C426.060791,619.416931 423.818848,619.643677 421.103912,619.918335 
	C421.103912,622.794128 421.112671,625.588501 421.102081,628.382751 
	C421.079224,634.412170 421.628021,634.895996 427.989655,634.066284 
	C428.499634,635.703918 429.027191,637.398132 429.542511,639.052979 
	C419.053467,644.170288 413.215271,639.742737 412.965027,626.429199 
	C412.933075,624.923096 412.996155,623.851746 413.061768,622.142700 
	C413.017365,621.341492 412.970490,621.177917 412.923584,621.014282 
	C411.156525,619.233521 407.331573,618.649170 409.147797,614.795227 
	C409.485443,614.078796 410.529144,613.695007 411.900391,613.078796 
	C412.633270,612.667358 412.712738,612.334900 412.792236,612.002380 
z"/>
<path fill="#F0F4F6" opacity="1.000000" stroke="none" 
	d="
M480.536926,697.393188 
	C478.407410,696.381287 476.543762,695.148926 474.561188,693.837830 
	C476.504730,691.364990 478.115875,689.315063 480.047424,686.857483 
	C477.413757,685.736145 475.188873,684.788818 472.414001,683.607300 
	C473.095428,681.686829 473.773682,679.775330 474.548767,677.590881 
	C477.043854,678.602783 479.135132,679.450867 481.730408,680.503357 
	C481.888885,677.710938 482.023102,675.345947 482.180634,672.569824 
	C484.263977,672.473816 486.195099,672.384827 488.562622,672.275757 
	C488.732056,674.976868 488.883423,677.390320 489.075256,680.448181 
	C491.474060,679.453613 493.535522,678.598877 496.184967,677.500366 
	C497.175751,679.482727 498.150787,681.433533 499.268158,683.669128 
	C496.374237,684.721375 493.938507,685.606934 491.006561,686.672974 
	C492.774719,689.068726 494.306549,691.144226 496.050873,693.507568 
	C494.268707,694.871826 492.593292,696.154358 490.596466,697.682922 
	C488.956146,695.410095 487.440277,693.309692 485.500183,690.621521 
	C483.787506,693.010132 482.295135,695.091370 480.536926,697.393188 
z"/>
<path fill="#F1F4F8" opacity="1.000000" stroke="none" 
	d="
M438.668640,682.296082 
	C439.367523,680.618103 439.934814,679.277832 440.562927,677.793945 
	C443.099548,678.863892 445.340454,679.809082 447.889038,680.884094 
	C447.889038,678.046936 447.889038,675.604370 447.889038,672.779114 
	C449.976776,672.779114 451.873627,672.779114 454.090729,672.779114 
	C454.282104,675.054932 454.484375,677.460144 454.739563,680.495056 
	C457.227509,679.511047 459.300568,678.691101 461.824127,677.693054 
	C462.617279,679.479370 463.396332,681.234070 464.355164,683.393555 
	C461.655060,684.457336 459.251953,685.404114 456.289551,686.571289 
	C458.099365,688.816589 459.721466,690.828979 461.617859,693.181702 
	C459.813416,694.781128 458.141785,696.262817 456.231110,697.956421 
	C454.548035,695.634766 453.031219,693.542358 451.202698,691.020020 
	C449.335663,693.382812 447.723358,695.423218 445.776672,697.886719 
	C444.026886,696.547058 442.284698,695.213257 440.370514,693.747803 
	C442.170898,691.435242 443.683472,689.492310 445.205536,687.537170 
	C442.899597,685.841553 440.718323,684.237671 438.668640,682.296082 
z"/>
<path fill="#F5F8F9" opacity="1.000000" stroke="none" 
	d="
M514.784058,697.680176 
	C512.763184,696.547791 511.065765,695.261292 509.126984,693.791809 
	C510.940796,691.426147 512.515930,689.371765 514.520691,686.757019 
	C511.841217,685.695190 509.485931,684.761841 506.697113,683.656738 
	C507.523224,681.629700 508.245575,679.857300 509.075714,677.820435 
	C511.577026,678.780518 513.802124,679.634583 516.508423,680.673340 
	C516.696899,677.826904 516.854614,675.445068 517.029114,672.809387 
	C518.955078,672.809387 520.716919,672.809387 522.814636,672.809387 
	C522.946228,675.154724 523.073120,677.415710 523.237183,680.339844 
	C525.520935,679.415039 527.548828,678.593872 530.179443,677.528625 
	C531.236877,679.372253 532.322815,681.265625 533.568237,683.437073 
	C530.558228,684.668030 528.016418,685.707458 525.025635,686.930542 
	C526.775391,689.243774 528.246948,691.189209 530.040283,693.560120 
	C528.500366,694.846741 526.926758,696.161499 525.032898,697.743835 
	C523.302246,695.530212 521.721130,693.507935 519.762451,691.002686 
	C518.068359,693.376648 516.587952,695.451294 514.784058,697.680176 
z"/>
<path fill="#F3F6F7" opacity="1.000000" stroke="none" 
	d="
M566.653198,682.344727 
	C564.642822,684.116882 562.483887,685.540955 559.874512,687.262207 
	C561.046265,688.903931 562.525879,690.976990 564.368469,693.558594 
	C562.760376,694.961426 561.093872,696.415222 559.129272,698.129089 
	C557.315308,695.719604 555.657043,693.516907 553.691101,690.905518 
	C551.890808,693.266968 550.261902,695.403625 548.504578,697.708801 
	C546.723938,696.420898 545.135742,695.272156 543.250366,693.908508 
	C544.957031,691.539795 546.536255,689.347900 548.355042,686.823547 
	C545.754517,685.759705 543.520386,684.845825 540.731201,683.704834 
	C541.587646,681.659302 542.378235,679.771118 543.318237,677.526001 
	C545.771423,678.736450 547.943970,679.808472 550.539429,681.089172 
	C550.539429,678.244263 550.539429,675.734314 550.539429,672.931641 
	C552.800110,672.931641 554.709778,672.931641 556.989624,672.931641 
	C556.989624,675.491455 556.989624,677.916626 556.989624,680.866760 
	C559.755676,679.806519 562.029419,678.934937 564.598267,677.950256 
	C565.258911,679.352539 565.881775,680.674622 566.653198,682.344727 
z"/>
<path fill="#226399" opacity="1.000000" stroke="none" 
	d="
M637.974609,381.046021 
	C639.602356,380.604797 641.241699,380.527802 642.879883,380.431335 
	C644.494385,380.336304 646.107788,380.221527 648.074890,380.092194 
	C646.590210,377.333313 645.342346,375.014587 644.053711,372.346252 
	C647.451538,373.308685 650.890076,374.620667 654.688843,375.968506 
	C654.055786,381.739014 653.062500,387.473694 651.974121,393.606171 
	C649.050171,393.919739 648.534668,395.334381 649.463928,397.708710 
	C649.977783,399.021759 650.461670,400.346619 650.931641,402.092285 
	C643.594604,403.066864 643.562378,403.044525 643.538574,396.989319 
	C641.971130,396.899933 640.376160,396.808990 638.376709,396.605103 
	C641.037170,391.464752 640.046936,386.433685 637.974609,381.046021 
z"/>
<path fill="#114F85" opacity="1.000000" stroke="none" 
	d="
M563.347961,630.958008 
	C562.040161,628.233032 561.122559,625.462769 560.566711,623.784546 
	C561.492554,619.597656 562.239136,616.221313 563.077637,612.429565 
	C568.416443,611.957703 571.956482,614.381104 573.609558,619.368958 
	C575.465698,624.969543 572.930786,629.010742 567.066528,630.033630 
	C565.940247,630.230103 564.846741,630.614807 563.347961,630.958008 
z"/>
<path fill="#F0F4F6" opacity="1.000000" stroke="none" 
	d="
M609.189575,648.856689 
	C608.581665,643.567078 608.182617,638.280090 608.349731,633.011047 
	C608.370972,632.340027 611.597900,630.953125 612.894043,631.350708 
	C614.452332,631.828613 616.855103,634.226135 616.597717,635.160522 
	C615.326416,639.776611 613.326660,644.196472 611.464722,648.635498 
	C611.343201,648.925415 610.226685,648.798096 609.189575,648.856689 
z"/>
<path fill="#226399" opacity="1.000000" stroke="none" 
	d="
M538.951355,393.220703 
	C540.961487,390.906982 542.991699,389.056091 545.269775,387.015686 
	C549.694824,388.359650 550.941101,391.698303 551.024414,396.131226 
	C547.254700,398.292725 543.478821,400.080078 539.348328,401.878906 
	C538.986328,399.154755 538.978882,396.419098 538.951355,393.220703 
z"/>
<path fill="#F0F4F6" opacity="1.000000" stroke="none" 
	d="
M502.119110,628.496582 
	C499.883514,628.491943 498.108093,628.491943 496.198212,628.491943 
	C496.198212,626.106750 496.198212,624.336487 496.198212,622.271484 
	C500.948242,622.271484 505.507721,622.271484 510.421997,622.271484 
	C510.421997,624.202271 510.421997,626.088074 510.421997,628.501282 
	C507.782990,628.501282 505.181152,628.501282 502.119110,628.496582 
z"/>
<path fill="#F3F6F7" opacity="1.000000" stroke="none" 
	d="
M395.301331,634.496887 
	C396.274139,631.238586 398.488342,630.721191 401.527832,631.032349 
	C402.908173,633.121460 404.821014,635.315491 404.585999,637.248291 
	C404.414124,638.661499 401.397522,640.761963 399.684174,640.728821 
	C396.579834,640.668884 394.962280,638.190552 395.301331,634.496887 
z"/>
<path fill="#296A9E" opacity="1.000000" stroke="none" 
	d="
M525.038330,379.404083 
	C529.539429,377.922119 534.083496,376.792755 538.618530,375.665619 
	C537.837585,379.309021 536.979126,383.611694 531.342896,384.908142 
	C529.015015,383.139557 527.048157,381.448120 525.038330,379.404083 
z"/>
<path fill="#F0F4F6" opacity="1.000000" stroke="none" 
	d="
M381.065186,634.532349 
	C384.084595,630.665710 387.050781,630.724548 390.133484,634.651489 
	C390.270508,637.973938 389.682312,640.898804 386.007721,640.812012 
	C382.566650,640.730713 380.793823,638.496948 381.065186,634.532349 
z"/>
<path fill="#226399" opacity="1.000000" stroke="none" 
	d="
M617.006836,340.333313 
	C616.564026,340.773651 616.111877,340.859680 615.313354,340.967896 
	C613.077698,339.868195 611.188293,338.746277 609.151733,337.318420 
	C609.276917,335.567688 609.549438,334.122864 609.959595,332.337097 
	C615.042786,332.370422 615.607300,336.531494 617.006836,340.333313 
z"/>
<path fill="#1D5D94" opacity="1.000000" stroke="none" 
	d="
M379.065063,342.007294 
	C380.835846,330.916077 382.560944,320.259247 384.288452,309.587616 
	C393.678589,309.587616 402.856384,308.852448 411.862427,309.781708 
	C422.126465,310.840759 426.946564,316.101074 427.868378,324.685516 
	C429.013000,335.344696 424.171417,344.417267 415.349548,347.986572 
	C413.505035,348.732880 411.573853,349.620026 409.640961,349.733643 
	C399.216827,350.346497 388.779602,350.736023 377.753265,351.229156 
	C378.273132,347.621155 378.646271,345.031403 379.065063,342.007294 
z"/>
<path fill="#1A5C93" opacity="1.000000" stroke="none" 
	d="
M603.153809,353.930603 
	C602.719788,352.652496 602.719788,351.402008 602.719788,349.690704 
	C601.444641,349.563019 600.115051,349.429871 598.391907,349.190186 
	C598.129517,341.944061 602.664307,338.560669 607.874451,342.185242 
	C609.866516,343.571075 611.657898,347.029999 611.467896,349.376404 
	C611.128174,353.571991 607.460266,354.507324 603.153809,353.930603 
z"/>
<path fill="#226399" opacity="1.000000" stroke="none" 
	d="
M616.960938,347.124817 
	C619.372009,350.737091 621.720886,354.673798 623.773071,358.759552 
	C624.182373,359.574402 623.458313,360.958496 622.998047,362.209778 
	C617.263794,359.563385 615.046204,354.028442 616.960938,347.124817 
z"/>
<path fill="#226399" opacity="1.000000" stroke="none" 
	d="
M594.986145,380.742371 
	C597.319641,380.166229 599.655579,379.968689 602.364380,379.535828 
	C602.800537,379.786194 602.911255,380.271027 602.919128,380.757538 
	C602.957458,383.133240 603.761047,386.385742 600.275452,386.512360 
	C597.308533,386.620148 594.494629,385.124390 594.986145,380.742371 
z"/>
<path fill="#226399" opacity="1.000000" stroke="none" 
	d="
M592.957825,348.690430 
	C591.605591,349.130035 590.211487,349.198517 588.409668,349.162292 
	C588.563354,348.066711 589.124817,347.075836 589.686279,346.084961 
	C590.762817,346.829742 591.839355,347.574554 592.957825,348.690430 
z"/>
<path fill="#226399" opacity="1.000000" stroke="none" 
	d="
M628.783813,370.526764 
	C629.791565,371.185608 630.940002,372.230591 632.137329,373.602234 
	C631.098999,372.923553 630.011780,371.918243 628.783813,370.526764 
z"/>
<path fill="#226399" opacity="1.000000" stroke="none" 
	d="
M574.987549,380.713562 
	C575.438293,380.318390 575.892334,380.261261 576.681152,380.291107 
	C576.881226,381.421234 576.746460,382.464417 576.611694,383.507568 
	C576.340576,383.552124 576.069397,383.596649 575.798279,383.641205 
	C575.529114,382.777985 575.259888,381.914764 574.987549,380.713562 
z"/>
<path fill="#206094" opacity="1.000000" stroke="none" 
	d="
M532.061890,349.636597 
	C537.218933,349.700073 540.555847,351.709167 541.401123,356.593445 
	C542.255066,361.527466 540.244446,365.395477 536.162842,368.118591 
	C532.167480,370.784119 526.700012,370.672394 523.521912,368.060242 
	C518.708069,364.103607 519.993713,354.835236 525.993225,351.402740 
	C527.663757,350.446991 529.744629,350.208374 532.061890,349.636597 
z"/>
<path fill="#226399" opacity="1.000000" stroke="none" 
	d="
M685.537720,351.122986 
	C691.171082,356.713409 690.312988,366.182434 684.048950,370.159698 
	C680.287781,372.547791 676.170044,373.109497 672.403625,370.347504 
	C668.731812,367.654907 668.533386,363.649200 669.470154,359.546783 
	C670.700806,354.157745 674.250427,350.394989 678.931885,350.015869 
	C680.976990,349.850250 683.096741,350.607025 685.537720,351.122986 
z"/>
<path fill="#226399" opacity="1.000000" stroke="none" 
	d="
M480.157928,357.576569 
	C478.278168,357.589874 476.837189,357.589874 475.303467,357.589874 
	C476.619995,351.455200 480.609222,348.559174 486.737091,348.906647 
	C491.283356,349.164459 493.348389,351.423279 493.859222,357.563263 
	C489.405121,357.563263 485.000916,357.563263 480.157928,357.576569 
z"/>
<path fill="#296A9E" opacity="1.000000" stroke="none" 
	d="
M478.021484,623.078064 
	C477.782318,624.336426 477.485809,625.943787 477.044556,625.984558 
	C474.432953,626.225830 471.787811,626.103516 468.408539,626.103516 
	C470.180969,621.460632 471.739349,617.378418 473.631897,612.420898 
	C475.268555,616.366394 476.582886,619.534790 478.021484,623.078064 
z"/>
<path fill="#296A9E" opacity="1.000000" stroke="none" 
	d="
M363.994446,634.180115 
	C359.729340,635.706970 356.708282,634.510437 354.967285,630.850220 
	C353.193756,627.121643 353.304840,623.176025 356.441040,620.325012 
	C357.903351,618.995667 361.186401,617.871094 362.543823,618.627686 
	C364.826447,619.900146 366.971588,622.495239 367.825256,624.994751 
	C369.007568,628.456604 367.724884,631.855774 363.994446,634.180115 
z"/>
<path fill="#296A9E" opacity="1.000000" stroke="none" 
	d="
M631.283203,632.646423 
	C630.409729,631.015747 629.553650,629.718689 629.239197,628.301392 
	C628.284668,624.000671 630.531738,619.488220 634.175293,618.552002 
	C637.978333,617.574829 640.617432,619.313721 642.136353,622.795166 
	C643.980164,627.021118 642.915710,632.463379 639.297974,633.707031 
	C637.067871,634.473633 634.154663,633.253296 631.283203,632.646423 
z"/>
<path fill="#1A5C93" opacity="1.000000" stroke="none" 
	d="
M412.765015,621.098328 
	C412.970490,621.177917 413.017365,621.341492 412.981873,621.746704 
	C412.743134,621.822815 412.569183,621.669250 412.443604,621.483154 
	C412.414093,621.439453 412.547852,621.285583 412.765015,621.098328 
z"/>
<path fill="#1A5C93" opacity="1.000000" stroke="none" 
	d="
M412.609070,612.113403 
	C412.712738,612.334900 412.633270,612.667358 412.275635,612.976440 
	C412.060547,612.663208 412.203339,612.420349 412.609070,612.113403 
z"/>
</svg>